<!-- Generated by IcoMoon.io -->
<svg version="1.1" xmlns="http://www.w3.org/2000/svg" width="32" height="32" viewBox="0 0 32 32">
<title>arrow-down</title>
<path d="M15.438 26.56l-5.999-6c-0.271-0.271-0.439-0.645-0.439-1.058 0-0.001 0-0.001 0-0.002v0c0.001-0.828 0.672-1.499 1.5-1.499 0.414 0 0.789 0.168 1.060 0.439v0l3.44 3.439v-14.38c0-0.828 0.672-1.5 1.5-1.5s1.5 0.672 1.5 1.5v14.38l3.44-3.44c0.273-0.282 0.655-0.457 1.078-0.457 0.828 0 1.5 0.672 1.5 1.5 0 0.424-0.176 0.806-0.458 1.079l-0 0-5.999 5.999c-0.14 0.14-0.307 0.25-0.49 0.327l-0.025 0.007c-0.17 0.067-0.353 0.106-0.546 0.106-0.194 0-0.377-0.040-0.547-0.106l-0.024-0.007c-0.19-0.080-0.353-0.191-0.49-0.327l0 0z"></path>
</svg>
