<!-- Generated by IcoMoon.io -->
<svg version="1.1" xmlns="http://www.w3.org/2000/svg" width="304" height="32" viewBox="0 0 304 32">
<title>virtual-fr</title>
<path d="M41.447 7.596l3.584 11.395 3.676-11.395h3.676l-5.698 16.902h-3.033l-5.79-16.902h3.584zM59.458 24.593h-3.4v-16.997h3.308v16.997h0.092zM73.703 24.593l-2.941-6.647h-2.665v6.647h-3.308v-16.997h5.881c3.768 0 6.157 1.709 6.157 5.223 0 2.279-1.011 3.798-2.849 4.558l3.4 7.217h-3.676zM70.303 15.003c1.93 0 3.124-0.475 3.124-2.184s-1.103-2.279-3.124-2.279h-2.206v4.463h2.206zM91.991 7.596v2.944h-4.503v14.053h-3.308v-14.053h-4.503v-2.944h12.314zM108.257 7.596v10.065c0 5.033-2.665 7.122-6.341 7.122s-6.341-2.089-6.341-7.027v-10.16h3.308v10.065c0 2.944 0.919 4.178 2.941 4.178s2.941-1.235 2.941-4.178v-10.065h3.492zM123.604 7.596v2.944h-6.892v3.798h6.157v2.944h-6.157v4.463h6.892v2.944h-10.201v-17.092h10.201zM131.14 21.65h6.892v2.944h-10.201v-16.997h3.308v14.053zM151.909 7.596v2.944h-6.892v3.798h6.157v2.944h-6.157v4.463h6.892v2.944h-10.201v-17.092h10.201zM162.202 24.593l5.698-16.997h3.216l5.698 16.902h-3.584l-1.010-3.228h-5.515l-1.010 3.228h-3.493v0.095zM167.624 18.421h3.675l-1.838-5.982-1.837 5.982zM188.301 12.819c-0.275-1.614-1.195-2.564-2.848-2.564-1.931 0-2.941 1.329-2.941 4.558v2.374c0 3.134 1.010 4.558 2.941 4.558 1.653 0 2.48-0.855 2.848-2.564h3.125c-0.552 3.798-2.573 5.507-5.973 5.507-3.677 0-6.25-2.279-6.25-7.501v-2.374c0-5.223 2.573-7.502 6.25-7.502 3.216 0 5.421 1.804 5.973 5.507h-3.125zM206.314 7.596v2.944h-4.504v14.053h-3.309v-14.053h-4.502v-2.944h12.315zM213.573 24.593h-3.309v-16.997h3.309v16.997zM221.016 7.596l3.584 11.395 3.584-11.395h3.677l-5.79 16.997h-3.032l-5.698-16.997h3.675zM238.936 24.593h-3.307v-16.997h3.307v16.997zM255.202 7.596v2.944h-4.502v14.053h-3.309v-14.053h-4.502v-2.944h12.314zM269.171 7.596v2.944h-6.893v3.798h6.157v2.944h-6.157v4.463h6.893v2.944h-10.202v-17.092h10.202zM276.89 24.593h-3.309v-16.997h3.309v16.997zM293.157 7.596v2.944h-4.504v14.053h-3.307v-14.053h-4.504v-2.944h12.315zM68.739 0h-68.648v32h303.908v-32h-235.26zM19.757 19.181c0 0.855-0.643 1.614-1.562 1.614h-9.19c-0.827 0-1.562-0.665-1.562-1.614v-6.362c0-0.855 0.643-1.614 1.562-1.614h9.19c0.827 0 1.562 0.665 1.562 1.614v6.362zM25.822 20.7l-4.595-3.324v-2.849l4.595-3.323v9.496zM302.16 30.101h-268.986v-28.202h268.986v28.202z"></path>
</svg>
